# xmcd
#
# Track frame offsets:
#	150
#	6591
#	26559
#	39346
#	59046
#	74462
#	87608
#	99328
#	119914
#	134200
#	140641
#
# Disc length: 2058 seconds
#
# Revision: 1
# Processed by: cddbd v1.5.2PL0 Copyright (c) Steve Scherf et al.
# Submitted via: audiograbber 1.83.01
#
DISCID=b108080b
DTITLE=Catfish Willie and The Bucklebusters - "Cartoon Swing"
DYEAR=2011
DGENRE=Country swing
TTITLE0=Cartoon Swing
TTITLE1=The Voice of Old Man River
TTITLE2=Way Down at the Bottom of the List
TTITLE3=Diga Diga Doo
TTITLE4=You're Gonna Look Just Like a Monkey (When You Grow Old)
TTITLE5=I Like Bananas
TTITLE6=Lose a Lover
TTITLE7=Fan It
TTITLE8=Just Because
TTITLE9=Cartoon Swing (Reprise)
TTITLE10=Got Rice?
EXTD=
EXTT0=
EXTT1=
EXTT2=
EXTT3=
EXTT4=
EXTT5=
EXTT6=
EXTT7=
EXTT8=
EXTT9=
EXTT10=
PLAYORDER=
